<?xml version="1.0" encoding="UTF-8"?><svg xmlns="http://www.w3.org/2000/svg" xmlns:xlink="http://www.w3.org/1999/xlink" width="63.48869188361825" height="63.48869188361825" viewBox="0 0 112.58399611292126 112.58399611292126" class="looka-1j8o68f"><defs id="SvgjsDefs1025"><linearGradient id="SvgjsLinearGradient1032"><stop id="SvgjsStop1033" stop-color="#905e26" offset="0"></stop><stop id="SvgjsStop1034" stop-color="#f5ec9b" offset="0.5"></stop><stop id="SvgjsStop1035" stop-color="#905e26" offset="1"></stop></linearGradient><linearGradient id="SvgjsLinearGradient1036"><stop id="SvgjsStop1037" stop-color="#905e26" offset="0"></stop><stop id="SvgjsStop1038" stop-color="#f5ec9b" offset="0.5"></stop><stop id="SvgjsStop1039" stop-color="#905e26" offset="1"></stop></linearGradient><linearGradient id="SvgjsLinearGradient1040"><stop id="SvgjsStop1041" stop-color="#905e26" offset="0"></stop><stop id="SvgjsStop1042" stop-color="#f5ec9b" offset="0.5"></stop><stop id="SvgjsStop1043" stop-color="#905e26" offset="1"></stop></linearGradient></defs><g id="SvgjsG1026" featurekey="symbolFeature-0" transform="matrix(1.2372579305635591,0,0,1.2372579305635591,-1.0067482486592578,1.254841388728817)" fill="url(#SvgjsLinearGradient1032)"><g xmlns="http://www.w3.org/2000/svg"><path d="M80.6,46.4c1.3-3.9,0.6-9.3-2.8-12.5c-2.3-2.2-5.5-3.5-8.8-3.5c-1.9,0-3.8,0.5-5.5,1.3C59.9,25,51.3,20,42.5,20   c-2.3,0-4.5,0.3-6.5,1c-9.5,3-18.4,11.7-18.1,23.1c-1-0.2-2.1-0.3-3.2-0.3c-7.2,0-13,4.9-13.8,11.7c-0.4,3.3,0.6,6.3,2.8,8.7   c3.3,3.6,9.2,5.8,16,5.8h57.1c6.7,0,12-4.6,12.4-10.8C89.5,53,85.2,48,80.6,46.4z M85.9,59c-0.3,4.4-4.2,7.8-9.2,7.8H19.7   c-5.9,0-11-1.8-13.6-4.7c-1.6-1.7-2.2-3.8-2-6.2c0.6-5.1,5-8.9,10.6-8.9c1.5,0,3,0.3,4.4,0.8l2.5,1L21.3,46   c-1.5-10.7,6.7-19.2,15.7-22c1.8-0.6,3.7-0.8,5.6-0.8c8.1,0,16.4,5,18.9,11.4l0.8,2l1.7-1.2c1.6-1.1,3.3-1.7,5.2-1.7   c2.4,0,4.9,1,6.6,2.6c2.8,2.7,3,7.8,1.4,10.5l-1.3,2.2l2.5,0.3C82.1,49.6,86.2,53.9,85.9,59z"></path><path d="M37.9,49.6c-0.2-0.5-0.4-0.9-0.5-1.4c-0.1-0.3-0.4-0.5-0.7-0.4c-0.3,0.1-0.5,0.4-0.4,0.7c0.1,0.5,0.3,1.1,0.6,1.6   c0.3,0.7,0.6,2.5,0.4,3.2c-0.1,0.6-0.4,1.3-1.6,2.8c-0.2,0.2-0.2,0.6,0.1,0.8c0.1,0.1,0.2,0.1,0.4,0.1c0.2,0,0.3-0.1,0.5-0.2   c1.2-1.5,1.6-2.4,1.8-3.3C38.6,52.5,38.3,50.5,37.9,49.6z"></path><path d="M36,46.1c0,0.4,0,0.7,0.1,1.1c0,0.3,0.3,0.5,0.6,0.5c0,0,0,0,0.1,0c0.3,0,0.6-0.3,0.5-0.7c0-0.3-0.1-0.6-0.1-1   c0-2.3,1-4.6,2.6-6.2c0.2-0.2,0.2-0.6,0-0.8c-0.2-0.2-0.6-0.2-0.8,0C37,40.9,36,43.4,36,46.1z"></path><path d="M52.4,40.3c0.6,0.7,1.1,1.4,1.4,2.2c0.7,1.5,1.2,3.3,1.6,5.2c0.1,0.3,0.3,0.5,0.6,0.5c0,0,0.1,0,0.1,0   c0.3-0.1,0.5-0.4,0.5-0.7c-0.5-2.5-1.2-4.4-1.7-5.5c-0.4-0.9-0.9-1.8-1.6-2.5c-0.2-0.2-0.6-0.3-0.8-0.1   C52.2,39.7,52.2,40.1,52.4,40.3z"></path><path d="M41.8,37c-0.7,0.3-1.3,0.7-1.9,1.1c-0.3,0.2-0.3,0.6-0.1,0.8c0.2,0.3,0.6,0.3,0.8,0.1c0.5-0.4,1.1-0.7,1.7-1   c3.1-1.4,6.7-0.8,9.3,1.4c0.1,0.1,0.2,0.1,0.4,0.1c0.2,0,0.3-0.1,0.4-0.2c0.2-0.2,0.2-0.6-0.1-0.8C49.5,36.1,45.3,35.5,41.8,37z"></path><path d="M56.1,48.3c-0.3,0-0.5,0.3-0.5,0.7c0.4,3,0.3,5.9-0.3,8.5c-0.1,0.3,0.1,0.6,0.4,0.7c0,0,0.1,0,0.1,0c0.3,0,0.5-0.2,0.6-0.5   c0.6-2.7,0.7-5.8,0.3-8.9C56.7,48.5,56.4,48.3,56.1,48.3z"></path><path d="M52,48.5c-0.1-0.3-0.4-0.5-0.7-0.5c-0.3,0.1-0.5,0.4-0.5,0.7c0.2,1.3,0.4,2.6,0.4,3.9c0,1.3-0.1,2.6-0.4,3.8   c-0.4,1.7-1,3.3-1.9,4.9c-0.2,0.3-0.1,0.6,0.2,0.8c0.1,0.1,0.2,0.1,0.3,0.1c0.2,0,0.4-0.1,0.5-0.3c0.9-1.6,1.6-3.4,2-5.2   c0.3-1.3,0.4-2.6,0.4-4C52.4,51.3,52.3,49.9,52,48.5z"></path><path d="M43.1,52.6c0-1.7-0.4-3.6-0.9-4.9c-0.2-0.5-0.3-1.1-0.3-1.6c0-0.6,0.1-1.3,0.4-1.8c0.1-0.3,0-0.6-0.3-0.8   c-0.3-0.1-0.6,0-0.8,0.3c-0.4,0.7-0.5,1.5-0.5,2.3c0,0.7,0.2,1.4,0.5,2.1c0.5,1.2,0.8,2.9,0.8,4.4c0,0.6-0.1,1.2-0.2,1.7   c-0.4,1.6-1.1,3.1-3.3,5.5c-0.2,0.2-0.2,0.6,0,0.8c0.1,0.1,0.3,0.2,0.4,0.2c0.2,0,0.3-0.1,0.4-0.2c2.4-2.6,3.1-4.3,3.5-6.1   C43,54,43.1,53.4,43.1,52.6z"></path><path d="M51.1,47.5c0,0,0.1,0,0.1,0c0.3-0.1,0.5-0.4,0.4-0.7c-0.3-1-0.6-2-1-2.8c-0.8-1.9-2.7-3.1-4.8-3.1c-0.7,0-1.4,0.2-2.1,0.5   c-0.5,0.2-1,0.5-1.4,0.9c-0.2,0.2-0.3,0.6,0,0.8c0.2,0.2,0.6,0.3,0.8,0c0.3-0.3,0.7-0.5,1.1-0.7c0.5-0.2,1.1-0.4,1.6-0.4   c1.6,0,3.1,0.9,3.7,2.4c0.3,0.8,0.7,1.7,0.9,2.7C50.6,47.3,50.8,47.5,51.1,47.5z"></path><path d="M47.7,52.6c0-2.3-0.5-4.9-1.3-6.8c-0.1-0.3-0.5-0.4-0.8-0.3c-0.3,0.1-0.4,0.5-0.3,0.8c0.8,1.7,1.2,4.1,1.2,6.3   c0,1-0.1,1.9-0.3,2.8c-0.5,2.2-1.4,4.1-3.1,6.1c-0.2,0.3-0.2,0.6,0.1,0.8c0.1,0.1,0.2,0.1,0.4,0.1c0.2,0,0.3-0.1,0.5-0.2   c1.7-2.2,2.7-4.2,3.3-6.6C47.6,54.7,47.7,53.7,47.7,52.6z"></path><path d="M51.9,41.5c-1.4-1.9-3.7-3-6-3c-1.1,0-2.1,0.2-3.1,0.7c-0.8,0.4-1.5,0.8-2.1,1.4c-0.2,0.2-0.2,0.6,0,0.8   c0.2,0.2,0.6,0.2,0.8,0c0.5-0.5,1.1-0.9,1.8-1.2c0.8-0.4,1.7-0.6,2.6-0.6c2,0,3.9,0.9,5.1,2.5c0.1,0.2,0.3,0.2,0.5,0.2   c0.1,0,0.3,0,0.4-0.1C52,42.1,52.1,41.7,51.9,41.5z"></path><path d="M52,42.8c-0.3,0.1-0.4,0.5-0.3,0.8c1.1,2.6,1.8,6,1.8,9.1c0,1.5-0.2,3-0.5,4.3c-0.3,1.1-0.6,2.2-1,3.3   c-0.1,0.3,0,0.6,0.3,0.8c0.1,0,0.1,0,0.2,0c0.2,0,0.5-0.1,0.5-0.4c0.5-1.1,0.8-2.3,1.1-3.4c0.3-1.4,0.5-3,0.5-4.6   c0-3.2-0.7-6.8-1.9-9.5C52.7,42.8,52.3,42.7,52,42.8z"></path><path d="M40.8,52.6c0-1.4-0.3-3-0.7-4c-0.4-0.8-0.6-1.7-0.6-2.6c0-1.2,0.3-2.4,1-3.4c0.2-0.3,0.1-0.6-0.2-0.8   c-0.3-0.2-0.6-0.1-0.8,0.2c-0.8,1.2-1.2,2.6-1.2,4c0,1.1,0.2,2.1,0.7,3.1c0.4,0.9,0.6,2.3,0.6,3.5c0,0.5,0,0.9-0.1,1.2   c-0.3,1.2-0.8,2.4-2.7,4.4c-0.2,0.2-0.2,0.6,0,0.8c0.1,0.1,0.3,0.2,0.4,0.2c0.2,0,0.3-0.1,0.4-0.2c2-2.2,2.6-3.6,2.9-5   C40.7,53.7,40.8,53.2,40.8,52.6z"></path><path d="M43.3,58.3c-0.3-0.2-0.6-0.1-0.8,0.2c-0.5,0.8-1.1,1.6-1.9,2.5c-0.2,0.2-0.2,0.6,0.1,0.8c0.1,0.1,0.3,0.1,0.4,0.1   c0.2,0,0.3-0.1,0.4-0.2c0.8-0.9,1.5-1.8,2-2.6C43.7,58.9,43.6,58.5,43.3,58.3z"></path><path d="M43.2,57.2c-0.1,0.3,0,0.6,0.3,0.8c0.1,0,0.2,0.1,0.2,0.1c0.2,0,0.4-0.1,0.5-0.3c0.4-0.8,0.7-1.7,0.9-2.6   c0.2-0.7,0.3-1.6,0.3-2.5c0-1.9-0.4-4.1-1.1-5.7c-0.1-0.3-0.5-0.4-0.8-0.3c-0.3,0.1-0.4,0.5-0.3,0.8c0.6,1.4,1,3.5,1,5.3   c0,0.8-0.1,1.6-0.2,2.2C43.8,55.7,43.6,56.5,43.2,57.2z"></path><path d="M48.2,57.3c-0.1,0.3,0.1,0.6,0.4,0.7c0.1,0,0.1,0,0.2,0c0.2,0,0.5-0.2,0.6-0.4c0.2-0.5,0.3-1,0.4-1.4   c0.3-1.1,0.4-2.3,0.4-3.6c0-2.4-0.5-4.5-0.8-5.7c-0.1-0.3-0.4-0.5-0.7-0.4c-0.3,0.1-0.5,0.4-0.4,0.7c0.5,1.7,0.8,3.6,0.8,5.4   c0,1.2-0.1,2.3-0.4,3.3C48.4,56.4,48.3,56.8,48.2,57.3z"></path><path d="M47.5,45.4c0.1,0.1,0.1,0.3,0.2,0.4c0.1,0.3,0.5,0.4,0.8,0.3c0.3-0.1,0.4-0.5,0.3-0.8c-0.1-0.1-0.1-0.3-0.2-0.4   c-0.6-1.4-2.4-2.1-3.8-1.5c-0.9,0.4-1.5,1.2-1.7,2.1c-0.1,0.3,0.1,0.6,0.5,0.7c0,0,0.1,0,0.1,0c0.3,0,0.5-0.2,0.6-0.5   c0.1-0.6,0.5-1,1-1.3C46,44.1,47.1,44.5,47.5,45.4z"></path><path d="M48.4,58.4c-0.3-0.1-0.6,0-0.8,0.3c-0.4,0.9-0.9,1.8-1.5,2.7c-0.2,0.3-0.1,0.6,0.2,0.8c0.1,0.1,0.2,0.1,0.3,0.1   c0.2,0,0.4-0.1,0.5-0.3c0.6-1,1.2-1.9,1.6-2.9C48.9,58.9,48.7,58.5,48.4,58.4z"></path><path d="M40.1,36.5c0.1,0,0.2,0,0.3-0.1c0.3-0.2,0.7-0.4,1-0.5c3.1-1.4,6.7-1.2,9.6,0.3c0.3,0.2,0.6,0,0.8-0.2   c0.2-0.3,0-0.6-0.2-0.8c-3.3-1.7-7.3-1.9-10.7-0.4c-0.4,0.2-0.8,0.4-1.1,0.6c-0.3,0.2-0.4,0.5-0.2,0.8   C39.7,36.4,39.9,36.5,40.1,36.5z"></path><path d="M57,41.1c-0.9-1.9-2.2-3.6-3.9-4.9c-0.3-0.2-0.6-0.1-0.8,0.1c-0.2,0.3-0.1,0.6,0.1,0.8c1.5,1.1,2.8,2.7,3.5,4.4   c0.6,1.3,1,2.7,1.4,4.2c0.1,0.3,0.3,0.4,0.6,0.4c0,0,0.1,0,0.1,0c0.3-0.1,0.5-0.4,0.4-0.7C58.1,44,57.6,42.4,57,41.1z"></path><path d="M36.1,53c0-0.1,0-0.2,0-0.4c0-0.6-0.1-1.6-0.4-2.1c-0.6-1.4-1-2.9-1-4.5c0-3.4,1.6-6.6,4.2-8.7c0.3-0.2,0.3-0.6,0.1-0.8   c-0.2-0.3-0.6-0.3-0.8-0.1c-2.9,2.3-4.7,5.9-4.7,9.6c0,1.7,0.4,3.4,1,4.9c0.1,0.3,0.3,1.2,0.3,1.7c0,0.1,0,0.1,0,0.2   c-0.1,0.3,0.2,0.6,0.5,0.7c0,0,0.1,0,0.1,0C35.8,53.5,36,53.3,36.1,53z"></path></g></g></svg>